<svg xmlns="http://www.w3.org/2000/svg" id="Layer_1" viewBox="0 0 33.7 39.5">
  <style>
    .st0{fill:#b29588}
  </style>
  <path d="M14.2.4c-1 0-1.8.5-2.3 1.4-.3.4-.4.9-.4 1.4v26.2c0 2-.6 3.9-1.7 5.5a9.4 9.4 0 0 1-4 3.5 11.5 11.5 0 0 1-5.8 1V39c1.7-.7 3-2 3.8-3.8s1.2-3.8 1.2-6v-26A2.7 2.7 0 0 0 2.3.4h-.6V0h13v.4h-.5z" class="st0"/>
  <path d="M33.7 30.7H30c-4.5 0-7.6-1.2-9.5-3.7-5.2-7-7.8-10.7-7.8-10.8L23.2 2.5l.3-.8-.1-.6c-.2-.5-.6-.7-1.2-.7h-.5V0h10v.4h-.1a6 6 0 0 0-4.8 2.1l-8.5 10.1 10.9 15c1.3 1.7 2.8 2.6 4.5 2.6v.5z" class="st0"/>
</svg>
